<?xml version="1.0" encoding="utf-8"?>
<!-- Generator: Adobe Illustrator 22.0.1, SVG Export Plug-In . SVG Version: 6.00 Build 0)  -->
<svg version="1.1" xmlns="http://www.w3.org/2000/svg" xmlns:xlink="http://www.w3.org/1999/xlink" x="0px" y="0px"
	 viewBox="0 0 166 166" style="enable-background:new 0 0 166 166;" xml:space="preserve">
<style type="text/css">
	.st0{fill:#009FE3;}
	.st1{fill:#00A19A;}
	.st2{fill:#706F6F;}
	.st3{fill:#FFFFFF;}
	.st4{fill:#878787;}
	.st5{fill:#006390;}
	.st6{fill:#1D71B8;}
	.st7{fill:url(#SVGID_1_);}
	.st8{fill:url(#SVGID_2_);}
	.st9{fill:url(#SVGID_3_);}
	.st10{fill:#9D9D9C;}
	.st11{fill:url(#SVGID_4_);}
	.st12{fill:url(#SVGID_5_);}
	.st13{fill:url(#SVGID_6_);}
	.st14{fill:url(#SVGID_7_);}
	.st15{fill:url(#SVGID_8_);}
	.st16{fill:url(#SVGID_9_);}
	.st17{fill:url(#SVGID_10_);}
	.st18{fill:url(#SVGID_11_);}
	.st19{fill:url(#SVGID_12_);}
	.st20{fill:url(#SVGID_13_);}
	.st21{fill:url(#SVGID_14_);}
	.st22{clip-path:url(#SVGID_16_);fill:url(#SVGID_17_);}
	.st23{clip-path:url(#SVGID_19_);fill:url(#SVGID_20_);}
	.st24{clip-path:url(#SVGID_22_);fill:url(#SVGID_23_);}
	.st25{fill:url(#SVGID_24_);}
	.st26{clip-path:url(#SVGID_26_);fill:url(#SVGID_27_);}
	.st27{clip-path:url(#SVGID_29_);fill:url(#SVGID_30_);}
	.st28{clip-path:url(#SVGID_32_);fill:url(#SVGID_33_);}
	.st29{fill:url(#SVGID_34_);}
	.st30{fill:url(#SVGID_35_);}
	.st31{fill:url(#SVGID_36_);}
</style>
<g id="Layer_1">
</g>
<g id="Layer_2">
</g>
<g id="Layer_3">
	<g>
		<g>
			<path class="st10" d="M8.9,139h1.7v5.8c0,1.3,0.1,2.9,2.4,2.9c2.3,0,2.4-1.6,2.4-2.9V139h1.7v6.4c0,2.6-1.6,3.8-4.1,3.8
				s-4.1-1.3-4.1-3.8V139z"/>
			<path class="st10" d="M18.2,141.7h1.2v-0.6c0-1.8,1-2.2,2-2.2c0.5,0,0.9,0,1.1,0.1v1.2c-0.2-0.1-0.4-0.1-0.7-0.1
				c-0.4,0-0.8,0.2-0.8,0.8v0.7h1.4v1.2H21v6h-1.6v-6h-1.2V141.7z"/>
			<path class="st10" d="M22.4,141.7h1.2v-0.6c0-1.8,1-2.2,2-2.2c0.5,0,0.9,0,1.1,0.1v1.2c-0.2-0.1-0.4-0.1-0.7-0.1
				c-0.4,0-0.8,0.2-0.8,0.8v0.7h1.4v1.2h-1.4v6h-1.6v-6h-1.2V141.7z"/>
			<path class="st10" d="M27.5,139h1.6v1.5h-1.6V139z M27.5,141.7h1.6v7.2h-1.6V141.7z"/>
			<path class="st10" d="M35.7,144.2c-0.1-0.9-0.8-1.4-1.7-1.4c-0.8,0-2,0.4-2,2.6c0,1.2,0.5,2.5,1.9,2.5c0.9,0,1.6-0.6,1.7-1.7h1.6
				c-0.3,1.9-1.5,2.9-3.3,2.9c-2.3,0-3.5-1.6-3.5-3.7c0-2.2,1.2-3.9,3.6-3.9c1.7,0,3.1,0.8,3.3,2.6H35.7z"/>
			<path class="st10" d="M38.7,139h1.6v1.5h-1.6V139z M38.7,141.7h1.6v7.2h-1.6V141.7z"/>
			<path class="st10" d="M41.7,145.4c0-2.2,1.3-3.8,3.7-3.8c2.3,0,3.7,1.6,3.7,3.8c0,2.2-1.3,3.8-3.7,3.8
				C43,149.2,41.7,147.6,41.7,145.4z M47.4,145.4c0-1.2-0.6-2.5-2.1-2.5c-1.4,0-2.1,1.3-2.1,2.5c0,1.3,0.6,2.6,2.1,2.6
				C46.8,147.9,47.4,146.6,47.4,145.4z"/>
		</g>
		<g>
			<path class="st10" d="M58,139h4.1c3.1,0,4.4,2.2,4.4,5c0,2.8-1.3,5-4.4,5H58V139z M59.7,147.6h1.7c2.7,0,3.3-1.6,3.3-3.6
				s-0.6-3.6-3.3-3.6h-1.7V147.6z"/>
			<path class="st10" d="M69.1,145.8c0,1.1,0.6,2.1,1.9,2.1c0.9,0,1.5-0.4,1.8-1.2h1.5c-0.3,1.6-1.7,2.5-3.3,2.5
				c-2.3,0-3.5-1.6-3.5-3.8c0-2.1,1.3-3.8,3.5-3.8c2.3,0,3.7,2.1,3.4,4.2H69.1z M72.8,144.8c-0.1-1-0.7-1.9-1.8-1.9
				c-1.1,0-1.9,0.8-1.9,1.9H72.8z"/>
			<path class="st10" d="M75.7,139h1.6v3.7h0c0.4-0.7,1.3-1.1,2.2-1.1c2.3,0,3.4,1.7,3.4,3.8c0,1.9-1,3.8-3.1,3.8
				c-1,0-2-0.2-2.5-1.2h0v1h-1.5V139z M79.3,142.8c-1.3,0-2,1-2,2.6c0,1.5,0.7,2.5,2,2.5c1.5,0,2-1.3,2-2.5
				C81.3,144.1,80.6,142.8,79.3,142.8z"/>
			<path class="st10" d="M84.2,139h1.6v1.5h-1.6V139z M84.2,141.8h1.6v7.2h-1.6V141.8z"/>
			<path class="st10" d="M86.8,141.8H88v-2.2h1.6v2.2h1.4v1.2h-1.4v3.9c0,0.7,0.1,1,0.8,1c0.2,0,0.4,0,0.7-0.1v1.2
				c-0.4,0-0.7,0.1-1,0.1c-1.7,0-2-0.6-2-1.8V143h-1.2V141.8z"/>
			<path class="st10" d="M91.9,145.4c0-2.2,1.3-3.8,3.7-3.8s3.7,1.6,3.7,3.8c0,2.2-1.3,3.8-3.7,3.8S91.9,147.6,91.9,145.4z
				 M97.6,145.4c0-1.2-0.6-2.5-2.1-2.5s-2.1,1.3-2.1,2.5c0,1.3,0.6,2.6,2.1,2.6S97.6,146.6,97.6,145.4z"/>
			<path class="st10" d="M100.5,141.8h1.5v1.4h0c0.2-0.8,1.1-1.6,2.1-1.6c0.4,0,0.5,0,0.6,0v1.5c-0.2,0-0.5-0.1-0.7-0.1
				c-1.1,0-2,0.9-2,2.5v3.4h-1.6V141.8z"/>
			<path class="st10" d="M105.5,139h1.6v1.5h-1.6V139z M105.5,141.8h1.6v7.2h-1.6V141.8z"/>
		</g>
		<g>
			<path class="st10" d="M112.6,139h8.1v1.5h-3.2v8.5h-1.7v-8.5h-3.2V139z"/>
			<path class="st10" d="M126.7,149h-1.6v-1h0c-0.4,0.7-1.3,1.2-2.1,1.2c-1.9,0-2.7-1-2.7-2.8v-4.6h1.6v4.4c0,1.3,0.5,1.7,1.4,1.7
				c1.3,0,1.8-0.9,1.8-2v-4.2h1.6V149z"/>
			<path class="st10" d="M127.6,141.8h1.2v-2.2h1.6v2.2h1.4v1.2h-1.4v3.9c0,0.7,0.1,1,0.8,1c0.2,0,0.4,0,0.7-0.1v1.2
				c-0.4,0-0.7,0.1-1,0.1c-1.7,0-2-0.6-2-1.8V143h-1.2V141.8z"/>
			<path class="st10" d="M134.3,145.8c0,1.1,0.6,2.1,1.9,2.1c0.9,0,1.5-0.4,1.8-1.2h1.5c-0.3,1.6-1.7,2.5-3.3,2.5
				c-2.3,0-3.5-1.6-3.5-3.8c0-2.1,1.3-3.8,3.5-3.8c2.3,0,3.7,2.1,3.4,4.2H134.3z M138,144.8c-0.1-1-0.7-1.9-1.8-1.9
				c-1.1,0-1.9,0.8-1.9,1.9H138z"/>
			<path class="st10" d="M140.9,139h1.6v10h-1.6V139z"/>
			<path class="st10" d="M150.2,147.4c0,0.4,0.1,0.5,0.4,0.5c0.1,0,0.2,0,0.4,0v1.1c-0.2,0.1-0.7,0.2-1,0.2c-0.6,0-1.1-0.2-1.2-0.9
				c-0.6,0.6-1.7,0.9-2.5,0.9c-1.3,0-2.5-0.7-2.5-2.1c0-1.8,1.4-2.1,2.8-2.3c1.1-0.2,2.2-0.1,2.2-1c0-0.8-0.9-1-1.5-1
				c-0.9,0-1.5,0.4-1.6,1.1h-1.6c0.1-1.9,1.7-2.4,3.3-2.4c1.4,0,2.9,0.6,2.9,2.1V147.4z M148.6,145.4c-0.5,0.3-1.3,0.3-2,0.4
				c-0.7,0.1-1.3,0.4-1.3,1.2c0,0.7,0.9,0.9,1.5,0.9c0.7,0,1.8-0.4,1.8-1.4V145.4z"/>
			<path class="st10" d="M151.2,141.8h1.2v-2.2h1.6v2.2h1.4v1.2H154v3.9c0,0.7,0.1,1,0.8,1c0.2,0,0.4,0,0.7-0.1v1.2
				c-0.4,0-0.7,0.1-1,0.1c-1.7,0-2-0.6-2-1.8V143h-1.2V141.8z"/>
			<path class="st10" d="M156.7,139h1.6v1.5h-1.6V139z M156.7,141.8h1.6v7.2h-1.6V141.8z"/>
		</g>
		<g>
			<linearGradient id="SVGID_1_" gradientUnits="userSpaceOnUse" x1="28.9573" y1="130.9259" x2="28.9573" y2="43.9349">
				<stop  offset="0" style="stop-color:#93CEC0"/>
				<stop  offset="0.4453" style="stop-color:#29B9D2"/>
				<stop  offset="1" style="stop-color:#009FE3"/>
			</linearGradient>
			<path class="st7" d="M47.4,130.9H10.5c-1.6,0-2.8-1.3-2.8-2.8V46.8c0-1.6,1.3-2.8,2.8-2.8h36.9c1.6,0,2.8,1.3,2.8,2.8v81.3
				C50.2,129.7,48.9,130.9,47.4,130.9"/>
		</g>
		<g>
			<linearGradient id="SVGID_2_" gradientUnits="userSpaceOnUse" x1="82.5401" y1="43.9349" x2="82.5401" y2="130.9259">
				<stop  offset="0" style="stop-color:#93CEC0"/>
				<stop  offset="0.4453" style="stop-color:#29B9D2"/>
				<stop  offset="1" style="stop-color:#009FE3"/>
			</linearGradient>
			<path class="st8" d="M101,130.9H64.1c-1.6,0-2.8-1.3-2.8-2.8V46.8c0-1.6,1.3-2.8,2.8-2.8H101c1.6,0,2.8,1.3,2.8,2.8v81.3
				C103.8,129.7,102.5,130.9,101,130.9"/>
		</g>
		<g>
			<linearGradient id="SVGID_3_" gradientUnits="userSpaceOnUse" x1="135.4308" y1="43.9349" x2="135.4308" y2="130.9259">
				<stop  offset="0" style="stop-color:#93CEC0"/>
				<stop  offset="0.4453" style="stop-color:#29B9D2"/>
				<stop  offset="1" style="stop-color:#009FE3"/>
			</linearGradient>
			<path class="st9" d="M153.9,130.9H117c-1.6,0-2.8-1.3-2.8-2.8V46.8c0-1.6,1.3-2.8,2.8-2.8h36.9c1.6,0,2.8,1.3,2.8,2.8v81.3
				C156.7,129.7,155.4,130.9,153.9,130.9"/>
		</g>
		<g>
			<path class="st0" d="M156.7,19.6v12c0,1.6-1.1,2.8-2.4,2.8H10.1c-1.3,0-2.4-1.3-2.4-2.8v-12c0-1.6,1.1-2.8,2.4-2.8h144.2
				C155.6,16.7,156.7,18,156.7,19.6"/>
		</g>
		<g>
			<path class="st3" d="M18.1,96.2h4.6v15.4c0,3.6,0.2,7.7,6.2,7.7c6,0,6.2-4.1,6.2-7.7V96.2h4.6v16.9c0,6.8-4.3,10.1-10.8,10.1
				c-6.5,0-10.8-3.4-10.8-10.1V96.2z"/>
		</g>
		<g>
			<path class="st3" d="M71,96.2h11.2c8.3,0,11.9,6.1,11.9,13.5c0,7.5-3.6,13.5-11.9,13.5H71V96.2z M75.7,119.4h4.7
				c7.4,0,9-4.2,9-9.7c0-5.4-1.6-9.7-9-9.7h-4.7V119.4z"/>
		</g>
		<g>
			<polygon class="st3" points="124.4,96.1 146.4,96.1 146.4,100.2 137.8,100.2 137.8,123.2 133,123.2 133,100.2 124.4,100.2 			"/>
		</g>
	</g>
</g>
</svg>
